<svg xmlns="http://www.w3.org/2000/svg" viewBox="0 0 320 320" fill="currentColor">
  <g transform="translate(0,320) scale(0.1,-0.1)">
    <path d="M1451 3139 c-233 -27 -543 -145 -706 -269 -33 -25 -87 -67 -121 -93 -64 -48 -204 -202 -274 -300 -102 -143 -208 -398 -246 -592 -27 -140 -25 -485 4 -622 31 -142 73 -257 149 -403 143 -276 353 -492 618 -634 257 -139 455 -189 740 -189 300 0 536 66 801 224 302 179 544 483 646 814 47 150 44 160 -16 60 -67 -108 -131 -183 -241 -278 -110 -96 -225 -163 -363 -209 -266 -90 -497 -89 -762 5 -239 84 -425 228 -570 438 -125 183 -184 354 -196 571 -15 285 44 504 200 741 59 89 194 224 299 298 141 99 345 178 532 205 102 15 138 16 240 6 126 -11 241 -38 338 -77 78 -31 58 -9 -57 62 -310 192 -682 280 -1015 242z"/>
    <path d="M2270 2584 c-176 -34 -292 -143 -336 -317 -20 -77 -14 -190 14 -264 l19 -51 -353 -354 c-195 -194 -357 -361 -360 -370 -7 -24 17 -66 68 -115 l43 -43 32 30 c18 17 36 30 42 30 5 0 43 -31 82 -70 40 -38 75 -70 78 -70 3 0 59 51 123 113 l118 113 -75 74 c-41 41 -75 80 -75 87 0 11 164 179 357 365 l62 60 64 -32 c51 -25 83 -33 145 -37 183 -13 338 82 421 257 23 49 26 67 26 170 0 110 -2 119 -32 180 -30 61 -104 146 -160 185 -60 42 -226 74 -303 59z m178 -241 c20 -10 50 -38 67 -61 27 -39 30 -52 30 -116 0 -64 -4 -78 -29 -114 -35 -52 -112 -92 -174 -92 -64 0 -137 42 -170 99 -50 86 -28 217 46 269 61 44 158 50 230 15z"/>
  </g>
</svg>
